# xmcd
# Copyright (C) 1995-1998 Ti Kan
#
# Track frame offsets:
#       150
#       19550
#       35448
#       56180
#       77369
#       95630
#       114420
#       129248
#       147232
#       162119
#       187343
#       203470
#       218859
#       234145
#       249353
#       266233
#       283027
#       305482
#
# Disc length: 4263 seconds
#
# Revision: 17
# Processed by: cddbd v1.5.1PL0 Copyright (c) Steve Scherf et al.
# Submitted via: CD-Transfer v1.0
#
DISCID=f610a512
DTITLE=La Covacha - Euro Express 582
DYEAR=04
DGENRE=
TTITLE0=Regalame Noche
TTITLE1=No Te Quiero Perder
TTITLE2=Cartas De Verano
TTITLE3=Donde Estabes
TTITLE4=Perdoname
TTITLE5=El Verdadero Bling Bling
TTITLE6=Verdad De Dios (Remix)
TTITLE7=Corazon Loco
TTITLE8=Sin Despertar
TTITLE9=Como Decirte Que No (Club Remix)
TTITLE10=Malas Tentaciones
TTITLE11=Dementes En El Espacio
TTITLE12=Si Vas A Darme Boleto
TTITLE13=Quiero Estar Contigo
TTITLE14=Cuando Brille El Sol
TTITLE15=1953
TTITLE16=Decidir
TTITLE17=A Donde Es Que Voy
EXTD=
EXTT0=
EXTT1=
EXTT2=
EXTT3=
EXTT4=
EXTT5=
EXTT6=
EXTT7=
EXTT8=
EXTT9=
EXTT10=
EXTT11=
EXTT12=
EXTT13=
EXTT14=
EXTT15=
EXTT16=
EXTT17=
PLAYORDER=
